<svg width="19" height="17" viewBox="0 0 19 17" fill="none" xmlns="http://www.w3.org/2000/svg">
<path d="M19 8.89844C19 9.49277 18.8404 10.0439 18.5213 10.5486C18.2021 11.0533 17.7754 11.4484 17.2373 11.724C17.2521 11.8137 17.2596 11.9531 17.2596 12.1424C17.2596 13.0422 16.9219 13.8059 16.2539 14.4367C15.5822 15.0709 14.7732 15.3863 13.827 15.3863C13.4039 15.3863 12.9994 15.3166 12.6172 15.1771C12.3203 15.7217 11.8936 16.16 11.3332 16.4953C10.7766 16.834 10.1643 17 9.5 17C8.8209 17 8.20488 16.8373 7.65566 16.5053C7.10273 16.1766 6.67969 15.735 6.38281 15.1771C6.00059 15.3166 5.5998 15.3863 5.17305 15.3863C4.22676 15.3863 3.41406 15.0709 2.73496 14.4367C2.05586 13.8059 1.71816 13.0389 1.71816 12.1424C1.71816 12.0428 1.73301 11.9033 1.75898 11.724C1.2209 11.4451 0.794141 11.0533 0.475 10.5486C0.15957 10.0439 0 9.49277 0 8.89844C0 8.26758 0.178125 7.68652 0.530664 7.16191C0.883203 6.6373 1.3582 6.24883 1.95195 5.99648C1.79609 5.61797 1.71816 5.23613 1.71816 4.85762C1.71816 3.96113 2.05586 3.19414 2.73496 2.56328C3.41406 1.93242 4.22676 1.61367 5.17305 1.61367C5.59609 1.61367 6.00059 1.6834 6.38281 1.82285C6.67969 1.27832 7.10644 0.840039 7.6668 0.504687C8.22344 0.169336 8.83574 0 9.5 0C10.1643 0 10.7766 0.169336 11.3332 0.501367C11.8898 0.836719 12.3203 1.275 12.6172 1.81953C12.9994 1.68008 13.4002 1.61035 13.827 1.61035C14.7732 1.61035 15.5822 1.92578 16.2539 2.55996C16.9256 3.19414 17.2596 3.95781 17.2596 4.8543C17.2596 5.27266 17.1891 5.65117 17.048 5.99316C17.6418 6.24551 18.1168 6.63398 18.4693 7.15859C18.8219 7.68652 19 8.26758 19 8.89844ZM9.09551 11.4584L13.018 6.20234C13.1182 6.06289 13.1479 5.91016 13.1145 5.74746C13.0773 5.58477 12.9846 5.45527 12.8287 5.36895C12.6729 5.2793 12.5021 5.24941 12.3203 5.27266C12.1348 5.29922 11.9863 5.37891 11.875 5.51836L8.42012 10.1668L6.82812 8.7457C6.68711 8.61953 6.52383 8.55977 6.34199 8.56641C6.15645 8.57305 5.99687 8.63281 5.85586 8.7457C5.72969 8.85859 5.6666 9.00137 5.6666 9.17402C5.6666 9.34336 5.72969 9.48613 5.85586 9.60234L8.0416 11.558L8.14922 11.6344C8.27539 11.7107 8.40527 11.7473 8.53145 11.7473C8.78008 11.7439 8.96934 11.651 9.09551 11.4584Z" fill="#716DAA"/>
</svg>
